<svg height="438pt" viewBox="-64 0 438 438.86878" width="438pt" xmlns="http://www.w3.org/2000/svg"><path d="m183.296875 402.296875c0 15.148437-12.28125 27.429687-27.429687 27.429687-15.148438 0-27.429688-12.28125-27.429688-27.429687s12.28125-27.429687 27.429688-27.429687c15.148437 0 27.429687 12.28125 27.429687 27.429687zm0 0" fill="#3c96d1"/><path d="m155.867188 438.867188c-20.164063 0-36.570313-16.40625-36.570313-36.570313s16.40625-36.570313 36.570313-36.570313c20.164062 0 36.570312 16.40625 36.570312 36.570313s-16.40625 36.570313-36.570312 36.570313zm0-54.855469c-10.085938 0-18.285157 8.199219-18.285157 18.285156s8.199219 18.285156 18.285157 18.285156c10.085937 0 18.285156-8.199219 18.285156-18.285156s-8.199219-18.285156-18.285156-18.285156zm0 0" fill="#2a3d4f"/><path d="m302.152344 155.441406c0-83.183594-69.429688-150.152344-153.5-146.113281-69.71875 3.347656-134.183594 66.617187-138.746094 136.265625-3.496094 53.355469 21.65625 101.023438 61.5625 129.242188 23.679688 16.746093 38.683594 33.976562 38.683594 62.976562v.484375h91.429687c0-28.953125 14.5625-46.527344 38.261719-63.160156 37.671875-26.441407 62.308594-70.167969 62.308594-119.695313zm0 0" fill="#ffd766"/><path d="m210.722656 347.441406h-109.714844v-9.144531c0-26.207031-13.320312-40.796875-34.820312-55.996094-44.527344-31.484375-68.976562-82.816406-65.410156-137.300781 4.910156-74.890625 72.429687-141.203125 147.4375-144.804688 43.011718-2.117187 83.804687 13.101563 114.871094 42.71875 31.089843 29.628907 48.210937 69.59375 48.210937 112.527344 0 50.539063-24.746094 98.082032-66.199219 127.175782-24.734375 17.363281-34.375 32.976562-34.375 55.679687zm-91.855468-18.285156h74.046874c3.253907-30.476562 22.65625-48.15625 41.675782-61.503906 36.582031-25.675782 58.417968-67.625 58.417968-112.210938 0-37.886718-15.105468-73.148437-42.539062-99.292968-27.414062-26.132813-63.5-39.523438-101.378906-37.6875-65.03125 3.121093-125.808594 62.808593-130.0625 127.734374-3.152344 48.089844 18.425781 93.390626 57.71875 121.175782 20.230468 14.308594 39.078125 31.734375 42.121094 61.785156zm0 0" fill="#2a3d4f"/><path d="m172.527344 338.296875c-.058594 0-.113282 0-.164063 0-5.050781-.089844-9.074219-4.253906-8.984375-9.304687.746094-42.285157 6.027344-112.644532 30.570313-161.769532l-34.105469 16.46875c-2.515625 1.210938-5.4375 1.210938-7.953125 0l-34.105469-16.46875c24.542969 49.125 29.824219 119.484375 30.566406 161.769532.089844 5.050781-3.929687 9.214843-8.980468 9.304687-4.851563.058594-9.210938-3.933594-9.304688-8.980469-.691406-39.476562-6.464844-135.902344-44.992187-178.648437-2.925781-3.246094-3.144531-8.113281-.519531-11.605469 2.625-3.503906 7.351562-4.644531 11.289062-2.746094l60.023438 28.988282 60.023437-28.988282c3.925781-1.902344 8.664063-.765625 11.289063 2.746094 2.625 3.492188 2.40625 8.359375-.523438 11.605469-38.527344 42.746093-44.296875 139.171875-44.992188 178.648437-.089843 4.992188-4.164062 8.980469-9.136718 8.980469zm0 0" fill="#2a3d4f"/><path d="m201.582031 338.296875h-91.429687v68.570313c0 2.527343 2.046875 4.574218 4.570312 4.574218h82.289063c2.523437 0 4.570312-2.046875 4.570312-4.574218zm0 0" fill="#4b6981"/><g fill="#2a3d4f"><path d="m197.007812 420.582031h-82.285156c-7.5625 0-13.714844-6.152343-13.714844-13.714843v-77.710938h109.714844v77.710938c0 7.5625-6.152344 13.714843-13.714844 13.714843zm-77.710937-18.285156h73.140625v-54.855469h-73.140625zm0 0"/><path d="m101.007812 365.726562h109.714844v18.285157h-109.714844zm0 0"/></g></svg>