<?xml version="1.0" encoding="iso-8859-1"?>
<!-- Generator: Adobe Illustrator 19.0.0, SVG Export Plug-In . SVG Version: 6.00 Build 0)  -->
<svg version="1.1" id="Capa_1" xmlns="http://www.w3.org/2000/svg" xmlns:xlink="http://www.w3.org/1999/xlink" x="0px" y="0px"
	 viewBox="0 0 469.333 469.333" style="enable-background:new 0 0 469.333 469.333;" xml:space="preserve">
<g>
	<g>
		<g>
			<path d="M10.667,213.333h171.208c3.125,0,6.083-1.365,8.125-3.75c6-7.052,12.604-13.646,19.583-19.583
				c2.375-2.031,3.75-5,3.75-8.125V10.667C213.333,4.771,208.562,0,202.667,0h-160C19.146,0,0,19.135,0,42.667v160
				C0,208.562,4.771,213.333,10.667,213.333z M64,96h32V64c0-5.896,4.771-10.667,10.667-10.667S117.333,58.104,117.333,64v32h32
				c5.896,0,10.667,4.771,10.667,10.667s-4.771,10.667-10.667,10.667h-32v32c0,5.896-4.771,10.667-10.667,10.667
				S96,155.229,96,149.333v-32H64c-5.896,0-10.667-4.771-10.667-10.667S58.104,96,64,96z"/>
			<path d="M239.562,163.854c3.063,1.958,6.896,2.24,10.167,0.75c59.625-27.031,131.333-16.583,180.687,25.406
				c1.979,1.677,4.438,2.542,6.917,2.542c1.521,0,3.042-0.323,4.479-0.979c3.771-1.75,6.188-5.531,6.188-9.688V42.667
				C448,19.135,428.854,0,405.333,0h-160c-5.896,0-10.667,4.771-10.667,10.667v144.219
				C234.667,158.51,236.5,161.885,239.562,163.854z M298.667,96H384c5.896,0,10.667,4.771,10.667,10.667
				s-4.771,10.667-10.667,10.667h-85.333c-5.896,0-10.667-4.771-10.667-10.667S292.771,96,298.667,96z"/>
			<path d="M149.333,320c0-24.25,5.125-47.885,15.25-70.271c1.5-3.302,1.229-7.135-0.75-10.177
				c-1.958-3.042-5.333-4.885-8.958-4.885H10.667C4.771,234.667,0,239.437,0,245.333v160C0,428.865,19.146,448,42.667,448h139.208
				c4.167,0,7.938-2.417,9.688-6.188c1.729-3.781,1.125-8.219-1.563-11.385C163.771,399.573,149.333,360.365,149.333,320z
				 M146.208,380.875c-2.083,2.083-4.813,3.125-7.542,3.125s-5.458-1.042-7.542-3.125l-24.458-24.458l-24.458,24.458
				c-2.083,2.083-4.813,3.125-7.542,3.125s-5.458-1.042-7.542-3.125c-4.167-4.167-4.167-10.917,0-15.083l24.458-24.458
				l-24.458-24.458c-4.167-4.167-4.167-10.917,0-15.083c4.167-4.167,10.917-4.167,15.083,0l24.458,24.458l24.458-24.458
				c4.167-4.167,10.917-4.167,15.083,0c4.167,4.167,4.167,10.917,0,15.083l-24.458,24.458l24.458,24.458
				C150.375,369.958,150.375,376.708,146.208,380.875z"/>
			<path d="M320,170.667c-82.333,0-149.333,66.99-149.333,149.333s67,149.333,149.333,149.333S469.333,402.344,469.333,320
				S402.333,170.667,320,170.667z M373.333,362.667H266.667c-5.896,0-10.667-4.771-10.667-10.667
				c0-5.896,4.771-10.667,10.667-10.667h106.667c5.896,0,10.667,4.771,10.667,10.667C384,357.896,379.229,362.667,373.333,362.667z
				 M373.333,298.667H266.667c-5.896,0-10.667-4.771-10.667-10.667c0-5.896,4.771-10.667,10.667-10.667h106.667
				c5.896,0,10.667,4.771,10.667,10.667C384,293.896,379.229,298.667,373.333,298.667z"/>
		</g>
	</g>
</g>
<g>
</g>
<g>
</g>
<g>
</g>
<g>
</g>
<g>
</g>
<g>
</g>
<g>
</g>
<g>
</g>
<g>
</g>
<g>
</g>
<g>
</g>
<g>
</g>
<g>
</g>
<g>
</g>
<g>
</g>
</svg>
