<?xml version="1.0" encoding="iso-8859-1"?>
<!-- Generator: Adobe Illustrator 19.0.0, SVG Export Plug-In . SVG Version: 6.00 Build 0)  -->
<svg version="1.1" id="Capa_1" xmlns="http://www.w3.org/2000/svg" xmlns:xlink="http://www.w3.org/1999/xlink" x="0px" y="0px"
	 viewBox="0 0 512.002 512.002" style="enable-background:new 0 0 512.002 512.002;" xml:space="preserve">
<path style="fill:#E4E8EB;" d="M214.967,413.02v58.172l17.771,28.583c1.826,2.936,5.037,4.721,8.494,4.721h30.298
	c3.457,0,6.67-1.786,8.494-4.721l17.771-28.583V413.02H214.967z"/>
<path style="fill:#D6D6D6;" d="M297.801,413.02v58.167l-17.78,28.589c-1.826,2.936-5.037,4.72-8.494,4.72h-25.56l20.706-33.31
	V413.02H297.801z"/>
<g>
	<path style="fill:#6B717F;" d="M301.379,470.364h-89.995c-9.049,0-16.384-7.335-16.384-16.384l0,0
		c0-9.049,7.335-16.384,16.384-16.384h89.995c9.049,0,16.384,7.335,16.384,16.384l0,0
		C317.764,463.029,310.428,470.364,301.379,470.364z"/>
	<path style="fill:#6B717F;" d="M301.379,413.02h-89.995c-9.049,0-16.384-7.335-16.384-16.384l0,0
		c0-9.049,7.335-16.384,16.384-16.384h89.995c9.049,0,16.384,7.335,16.384,16.384l0,0
		C317.763,405.685,310.428,413.02,301.379,413.02z"/>
</g>
<g>
	<path style="fill:#5A606D;" d="M317.767,453.982c0,4.521-1.831,8.623-4.801,11.583c-2.971,2.961-7.062,4.801-11.583,4.801h-34.71
		v-32.77h34.71C310.425,437.598,317.767,444.93,317.767,453.982z"/>
	<path style="fill:#5A606D;" d="M301.382,413.02h-34.71v-32.77h34.71c9.043,0,16.385,7.332,16.385,16.385
		c0,4.531-1.831,8.623-4.801,11.583C309.995,411.19,305.903,413.02,301.382,413.02z"/>
</g>
<path style="fill:#F8D534;" d="M421.413,136.666c-8.684-34.371-28.915-68.561-55.549-92.126
	c-20.131-17.812-44.842-30.033-71.488-34.092c-25.708-3.916-51.054-3.896-76.665,0c-27.207,4.139-50.874,15.852-71.488,34.092
	c-26.634,23.566-46.866,57.755-55.549,92.126c-16.198,64.119,8.861,123.834,57.712,166.828
	c20.643,18.167,39.75,37.079,55.551,59.703c0.969,1.388,9.001,17.055,8.422,17.055h5.978h37.372h0.667h37.372h5.978
	c-0.577,0,7.453-15.667,8.422-17.055c15.802-22.625,34.908-41.536,55.551-59.703C412.552,260.501,437.611,200.785,421.413,136.666z"
	/>
<path style="fill:#E5C129;" d="M363.7,303.498c-20.646,18.165-39.752,37.071-55.556,59.697c-0.96,1.39-8.993,17.055-8.422,17.055
	h-33.047c0.52,0,5.382-11.623,6.022-12.724c15.174-26.278,32.567-48.634,55.223-68.57c51.735-45.533,78.273-108.772,61.118-176.682
	c-9.193-36.401-30.619-72.611-58.827-97.569c-2.781-2.461-5.642-4.811-8.573-7.062c16.185,6.142,31.169,15.344,44.223,26.898
	c26.638,23.567,46.864,57.757,55.556,92.127C437.612,200.788,412.555,260.496,363.7,303.498z"/>
<path d="M428.686,134.829c-9.247-36.603-30.333-71.559-57.851-95.908c-21.806-19.294-47.855-31.703-75.33-35.889
	c-26.535-4.043-52.351-4.042-78.924-0.002c-27.862,4.239-53.207,16.316-75.331,35.891c-18.022,15.946-33.48,36.678-44.701,59.956
	c-1.8,3.731-0.232,8.216,3.5,10.016c3.732,1.797,8.215,0.232,10.016-3.5c10.364-21.497,24.586-40.597,41.128-55.233
	c19.926-17.631,42.686-28.495,67.645-32.293c25.05-3.812,49.389-3.81,74.408,0c24.615,3.75,48.007,14.916,67.647,32.293
	c24.941,22.068,44.846,55.094,53.247,88.345c7.329,29.012,6.085,57.752-3.696,85.422c-9.191,26.001-26.171,50.764-49.101,71.612
	c-3.066,2.788-3.292,7.532-0.504,10.598c1.48,1.628,3.513,2.456,5.553,2.456c1.801,0,3.607-0.645,5.044-1.951
	C423.455,259.346,444.322,196.723,428.686,134.829z"/>
<path d="M326.711,328.587c-9.456,10.128-17.54,20.044-24.714,30.315c-1.063,1.523-4.274,7.851-5.233,9.754
	c-0.78,1.549-1.46,2.899-2.043,4.095h-9.852v-17.839c0-10.416,2.318-20.916,6.704-30.364l39.634-85.392
	c2.079-4.48,1.383-9.6-1.815-13.362c-3.198-3.762-8.14-5.277-12.895-3.943l-36.749,10.278l-15.165-16.301
	c-2.393-2.571-5.767-4.059-9.293-3.984c-3.512,0.039-6.866,1.565-9.203,4.19l-14.293,16.064l-36.64-10.247
	c-4.755-1.331-9.697,0.181-12.895,3.944c-3.198,3.763-3.893,8.883-1.814,13.361l39.634,85.392
	c4.385,9.448,6.703,19.947,6.703,30.364v17.839h-9.421c-0.582-1.195-1.262-2.546-2.043-4.095c-0.958-1.903-4.169-8.23-5.233-9.753
	c-17.827-25.526-39.691-46.03-56.746-61.04c-22.897-20.152-39.597-43.176-49.635-68.435c-10.486-26.387-13.102-53.923-7.774-81.843
	c0.776-4.07-1.894-7.999-5.963-8.776c-4.071-0.775-7.999,1.895-8.776,5.963c-5.872,30.77-2.988,61.117,8.569,90.198
	c10.92,27.478,28.975,52.427,53.665,74.157c16.4,14.434,37.382,34.094,54.28,58.257c0.548,0.908,2.263,4.178,3.923,7.458
	c-8.321,3.738-14.134,12.1-14.134,21.797c0,11.835,8.655,21.683,19.967,23.559v10.225c-11.312,1.876-19.967,11.723-19.967,23.559
	c0,12.796,10.114,23.272,22.768,23.858l16.102,25.899c3.217,5.175,8.775,8.263,14.866,8.263h30.298
	c6.093,0,11.649-3.089,14.865-8.263l16.102-25.899c12.654-0.586,22.768-11.062,22.768-23.858c0-11.835-8.655-21.683-19.967-23.559
	v-10.225c11.312-1.876,19.967-11.723,19.967-23.559c0-9.913-6.071-18.432-14.688-22.042c1.621-3.195,3.265-6.326,3.799-7.212
	c6.745-9.646,14.368-18.987,23.302-28.556c2.828-3.028,2.665-7.775-0.364-10.604C334.286,325.395,329.538,325.558,326.711,328.587z
	 M196.341,237.761l32.916,9.206c4.564,1.276,9.555-0.186,12.71-3.73l13.504-15.177l14.331,15.404
	c3.201,3.439,7.998,4.787,12.522,3.523l32.99-9.227l-37.348,80.47c-5.298,11.413-8.098,24.098-8.098,36.681v17.839h-28.079v-17.839
	c0-12.584-2.8-25.268-8.097-36.681L196.341,237.761z M273.654,495.816c-0.459,0.738-1.253,1.18-2.124,1.18h-30.298
	c-0.87,0-1.664-0.441-2.125-1.181l-11.158-17.947h56.863L273.654,495.816z M310.262,453.98c0,4.897-3.984,8.883-8.882,8.883h-89.996
	c-4.897,0-8.882-3.984-8.882-8.883c0-4.897,3.984-8.882,8.882-8.882h89.996C306.277,445.099,310.262,449.083,310.262,453.98z
	 M222.469,430.094v-9.571h67.826v9.571H222.469z M301.38,405.519h-3.583h-82.83h-3.583c-4.897,0-8.882-3.984-8.882-8.882
	s3.984-8.883,8.882-8.883h0.975h87.367h1.653c4.897,0,8.882,3.984,8.882,8.883C310.262,401.534,306.277,405.519,301.38,405.519z"/>
<g>
</g>
<g>
</g>
<g>
</g>
<g>
</g>
<g>
</g>
<g>
</g>
<g>
</g>
<g>
</g>
<g>
</g>
<g>
</g>
<g>
</g>
<g>
</g>
<g>
</g>
<g>
</g>
<g>
</g>
</svg>
