<svg id="Capa_1" enable-background="new 0 0 448.941 448.941" height="512" viewBox="0 0 448.941 448.941" width="512" xmlns="http://www.w3.org/2000/svg"><path d="m364.765 0h-280.589c-15.495 0-28.058 12.563-28.058 28.059v392.824c0 15.495 12.563 28.059 28.059 28.059h280.588c15.495 0 28.059-12.563 28.059-28.059v-392.824c0-15.496-12.564-28.059-28.059-28.059zm-196.412 392.824h-56.118v-56.118h56.118zm0-112.236h-56.118v-56.118h56.118zm84.176 112.236h-56.118v-56.118h56.118zm0-112.236h-56.118v-56.118h56.118zm84.177 112.236h-56.118v-56.118h56.118zm0-112.236h-56.118v-56.118h56.118zm0-112.235h-224.471v-112.235h224.471z"/></svg>