<svg height="512pt" viewBox="0 0 512 512" width="512pt" xmlns="http://www.w3.org/2000/svg"><path d="m313.019531 505.246094c-8.285156 0-15-6.71875-15-15v-18c0-8.285156 6.714844-15 15-15 8.285157 0 15 6.714844 15 15v18c0 8.28125-6.714843 15-15 15zm0-78c-8.285156 0-15-6.71875-15-15v-18c0-8.285156 6.714844-15 15-15 8.285157 0 15 6.714844 15 15v18c0 8.28125-6.714843 15-15 15zm0-78c-8.285156 0-15-6.71875-15-15v-18c0-8.285156 6.714844-15 15-15 8.285157 0 15 6.714844 15 15v18c0 8.28125-6.714843 15-15 15zm0-78c-8.285156 0-15-6.71875-15-15v-18c0-8.285156 6.714844-15 15-15 8.285157 0 15 6.714844 15 15v18c0 8.28125-6.714843 15-15 15zm0-78c-8.285156 0-15-6.71875-15-15v-18c0-8.285156 6.714844-15 15-15 8.285157 0 15 6.714844 15 15v18c0 8.28125-6.714843 15-15 15zm-46.003906-31.996094h-18c-8.285156 0-15-6.714844-15-15s6.714844-15 15-15h18c8.28125 0 15 6.714844 15 15s-6.71875 15-15 15zm-78 0h-18c-8.285156 0-15-6.714844-15-15s6.714844-15 15-15h18c8.28125 0 15 6.714844 15 15s-6.71875 15-15 15zm-78 0h-18c-8.285156 0-15-6.714844-15-15s6.714844-15 15-15h18c8.28125 0 15 6.714844 15 15s-6.71875 15-15 15zm-78 0h-18c-8.285156 0-15-6.714844-15-15s6.714844-15 15-15h18c8.28125 0 15 6.714844 15 15s-6.71875 15-15 15zm0 0" fill="#a3efff"/><g fill="#6ad9eb"><path d="m328.019531 316.246094c0-8.285156-6.714843-15-15-15v48c8.285157 0 15-6.71875 15-15zm0 0"/><path d="m328.019531 238.246094c0-8.285156-6.714843-15-15-15v48c8.285157 0 15-6.71875 15-15zm0 0"/><path d="m328.019531 412.246094v-18c0-8.285156-6.714843-15-15-15v48c8.285157 0 15-6.71875 15-15zm0 0"/><path d="m328.019531 490.246094v-18c0-8.285156-6.714843-15-15-15v48c8.285157 0 15-6.71875 15-15zm0 0"/><path d="m313.019531 145.246094v48c8.285157 0 15-6.71875 15-15v-18c0-8.285156-6.714843-15-15-15zm0 0"/></g><path d="m15 512c-8.285156 0-15-6.714844-15-15s6.714844-15 15-15c31.980469 0 72.277344-20.257812 110.5625-55.578125 31.710938-29.257813 76.882812-82.605469 112.003906-170.589844 30.503906-76.417969 69.765625-135.703125 116.6875-176.214843 43.625-37.65625 92.984375-57.5625 142.746094-57.5625 8.285156 0 15 6.714843 15 15 0 8.285156-6.714844 15-15 15-42.460938 0-85.042969 17.382812-123.144531 50.273437-43.246094 37.332031-79.726563 92.722656-108.429688 164.625-64.210937 160.875-174.585937 245.046875-250.425781 245.046875zm0 0" fill="#ff674f"/><path d="m497 22.054688c-49.761719 0-99.121094 19.90625-142.746094 57.5625-14.488281 12.507812-28.242187 26.808593-41.234375 42.847656v51.015625c18.425781-28.289063 38.746094-52.082031 60.839844-71.152344 38.097656-32.890625 80.679687-50.273437 123.140625-50.273437 8.285156 0 15-6.714844 15-15 0-8.285157-6.714844-15-15-15zm0 0" fill="#f2472c"/><path d="m195.78125 404.046875c0-16.570313-13.460938-30-30.0625-30s-30.0625 13.429687-30.0625 30 13.460938 30 30.0625 30 30.0625-13.429687 30.0625-30zm0 0" fill="#696453"/><path d="m343.082031 146c0-16.570312-13.460937-30-30.0625-30-16.601562 0-30.0625 13.429688-30.0625 30s13.460938 30 30.0625 30c16.601563 0 30.0625-13.429688 30.0625-30zm0 0" fill="#696453"/><path d="m343.082031 146c0-16.566406-13.460937-30-30.0625-30v60c16.601563 0 30.0625-13.433594 30.0625-30zm0 0" fill="#4c4a40"/><path d="m461.933594 53.519531c0-16.566406-13.460938-30-30.0625-30-16.601563 0-30.0625 13.433594-30.0625 30 0 16.570313 13.460937 30 30.0625 30 16.601562 0 30.0625-13.429687 30.0625-30zm0 0" fill="#4c4a40"/><path d="m497 482h-467v-467c0-8.285156-6.714844-15-15-15s-15 6.714844-15 15v482c0 8.285156 6.714844 15 15 15h482c8.285156 0 15-6.714844 15-15s-6.714844-15-15-15zm0 0" fill="#a19d8d"/><path d="m497 482h-183.980469v30h183.980469c8.285156 0 15-6.714844 15-15s-6.714844-15-15-15zm0 0" fill="#878477"/></svg>