<?xml version="1.0" encoding="iso-8859-1"?>
<!-- Generator: Adobe Illustrator 19.0.0, SVG Export Plug-In . SVG Version: 6.00 Build 0)  -->
<svg version="1.1" id="Capa_1" xmlns="http://www.w3.org/2000/svg" xmlns:xlink="http://www.w3.org/1999/xlink" x="0px" y="0px"
	 viewBox="0 0 496 496" style="enable-background:new 0 0 496 496;" xml:space="preserve">
<g>
	<g>
		<path d="M248,192c-13.232,0-24,10.768-24,24s10.768,24,24,24s24-10.768,24-24S261.232,192,248,192z M248,224c-4.416,0-8-3.592-8-8
			s3.584-8,8-8s8,3.592,8,8S252.416,224,248,224z"/>
	</g>
</g>
<g>
	<g>
		<path d="M496,248C496,111.256,384.752,0,248,0S0,111.256,0,248v8h167.752l-53.904,137.76c-1.224,3.136-1.848,6.44-1.848,9.816
			v1.48c0,10.952,6.592,20.36,16,24.568V456h16v-24.544c9.024-1.752,16.784-8.04,20.128-16.808l54.76-143.736L219.56,272h56.872
			l0.232-0.368L305.36,360H304v48h32v24l14.112,50.496C352.376,490.448,359.736,496,368,496c8.264,0,15.624-5.552,17.888-13.504
			l13.808-48.304L399.928,408H432v-48h-32v-40c0-13.232-10.768-24-24-24h-16c-7.336,0-13.832,3.376-18.24,8.584L325.672,256H496V248
			z M149.168,408.952c-1.6,4.216-5.704,7.048-10.224,7.048c-6.04,0-10.944-4.904-10.944-10.944v-1.48
			c0-1.368,0.248-2.712,0.76-3.992l65.664-167.816l13.824,22.112L149.168,408.952z M267.56,256h-39.12l-35.272-56.432L204.944,176
			h86.112l11.784,23.568L267.56,256z M232,160v-48h32v48H232z M370.496,478.12c-0.624,2.216-4.368,2.224-4.992-0.008L354.608,440
			h26.784L370.496,478.12z M384,424h-32v-16h32V424z M352,320c0-4.416,3.584-8,8-8h16c4.416,0,8,3.584,8,8v8h-32V320z M352,344h32
			v16h-32V344z M416,376v16h-96v-16H416z M336,338.088V360h-13.816l-34.448-106.08l13.328-21.328L336,338.088z M320.376,240
			l-8.288-25.04l9.08-14.528L316.944,192H344v-16h-35.056l-8-16H280V96h-64v64h-20.944l-8,16H96.224
			C123.856,118.128,183.416,80,248,80s124.144,38.128,151.776,96H360v16h63.688l-4.28-10.92C391.976,111.048,323.096,64,248,64
			S104.024,111.048,76.592,181.08L72.312,192h106.744l-4.216,8.432l9.016,14.424L174.016,240H16.136
			C20.368,115.768,122.752,16,248,16s227.632,99.768,231.864,224H320.376z"/>
	</g>
</g>
<g>
</g>
<g>
</g>
<g>
</g>
<g>
</g>
<g>
</g>
<g>
</g>
<g>
</g>
<g>
</g>
<g>
</g>
<g>
</g>
<g>
</g>
<g>
</g>
<g>
</g>
<g>
</g>
<g>
</g>
</svg>
