<?xml version="1.0" encoding="iso-8859-1"?>
<!-- Generator: Adobe Illustrator 19.0.0, SVG Export Plug-In . SVG Version: 6.00 Build 0)  -->
<svg version="1.1" id="Capa_1" xmlns="http://www.w3.org/2000/svg" xmlns:xlink="http://www.w3.org/1999/xlink" x="0px" y="0px"
	 viewBox="0 0 496 496" style="enable-background:new 0 0 496 496;" xml:space="preserve">
<path style="fill:#FFA64D;" d="M460.288,208c-5.48-29.16-17.104-57.176-33.92-81.792l25.28-25.288L395.08,44.352l-25.288,25.28
	C345.176,52.816,317.16,41.184,288,35.712V0h-80v35.712c-29.16,5.48-57.176,17.104-81.792,33.92l-25.288-25.28L44.352,100.92
	l25.28,25.288C52.816,150.824,41.184,178.84,35.712,208H0v80h35.712c5.48,29.16,17.104,57.176,33.92,81.792l-25.28,25.288
	l56.568,56.568l25.28-25.28c21.936,15.024,46.112,25.728,71.944,31.84H200v-49.264C130.624,388.288,80,324.088,80,248
	c0-92.784,75.216-168,168-168s168,75.216,168,168c0,76.088-50.624,140.288-120,160.952v49.264h1.84
	c25.84-6.12,50.016-16.816,71.952-31.84l25.28,25.28l56.568-56.568L426.36,369.8c16.824-24.608,28.448-52.632,33.92-81.792H496V208
	H460.288z"/>
<g>
	<rect x="240" y="32" style="fill:#3F3A34;" width="16" height="16"/>
	
		<rect x="92.915" y="92.92" transform="matrix(-0.7071 0.7071 -0.7071 -0.7071 243.6333 100.9238)" style="fill:#3F3A34;" width="16" height="16"/>
	<rect x="32" y="240" style="fill:#3F3A34;" width="16" height="16"/>
	
		<rect x="92.887" y="387.052" transform="matrix(-0.7071 0.7071 -0.7071 -0.7071 451.5688 603.0585)" style="fill:#3F3A34;" width="16" height="16"/>
	
		<rect x="387.019" y="387.04" transform="matrix(-0.7071 0.7071 -0.7071 -0.7071 953.6754 395.0547)" style="fill:#3F3A34;" width="16" height="16"/>
	<rect x="448" y="240" style="fill:#3F3A34;" width="16" height="16"/>
	
		<rect x="387.047" y="92.948" transform="matrix(-0.7071 0.7071 -0.7071 -0.7071 745.7681 -107.0117)" style="fill:#3F3A34;" width="16" height="16"/>
	<polygon style="fill:#3F3A34;" points="296,96 192.84,96 178.296,226.904 166.032,184 120,184 120,200 153.968,200 169.968,256 
		191.16,256 207.16,112 296,112 	"/>
	<path style="fill:#3F3A34;" d="M288,163.4c0-19.52-15.88-35.4-35.4-35.4h-1.2c-19.52,0-35.4,15.88-35.4,35.4V176h16v-12.6
		c0-10.696,8.704-19.4,19.4-19.4h1.2c10.696,0,19.4,8.704,19.4,19.4c0,5.664-2.472,11.04-6.776,14.728L216,220.32V240h72v-16
		h-51.704l39.352-33.728C283.496,183.528,288,173.736,288,163.4z"/>
	<path style="fill:#3F3A34;" d="M248,64C146.544,64,64,146.536,64,248c0,79.92,52.368,150.984,128,175.152V496h112v-72.768
		c25.704-8.224,49.624-22.144,69.456-40.632l-10.912-11.704c-16.856,15.712-36.928,27.856-58.544,35.52v-64.312l-37.264-74.528
		C263.168,260.44,255.984,256,248,256s-15.168,4.44-18.736,11.576L192,342.112v64.224C125.576,382.832,80,319.256,80,248
		c0-92.632,75.36-168,168-168s168,75.368,168,168c0,42.672-16.016,83.352-45.104,114.544l11.704,10.904
		C414.456,339.288,432,294.744,432,248C432,146.536,349.456,64,248,64z M256,480v-96h-16v96h-32V352h32v16h16v-16h32v128H256z
		 M283.056,336h-70.112l16-32h38.112L283.056,336z M252.424,274.736L259.056,288h-22.112l6.632-13.264
		C245.264,271.36,250.736,271.36,252.424,274.736z"/>
	<rect x="304" y="192" style="fill:#3F3A34;" width="88" height="16"/>
	<rect x="336" y="224" style="fill:#3F3A34;" width="56" height="16"/>
	<rect x="304" y="256" style="fill:#3F3A34;" width="88" height="16"/>
	<rect x="376" y="288" style="fill:#3F3A34;" width="16" height="16"/>
	<rect x="304" y="288" style="fill:#3F3A34;" width="56" height="16"/>
	<rect x="304" y="224" style="fill:#3F3A34;" width="16" height="16"/>
</g>
<g>
</g>
<g>
</g>
<g>
</g>
<g>
</g>
<g>
</g>
<g>
</g>
<g>
</g>
<g>
</g>
<g>
</g>
<g>
</g>
<g>
</g>
<g>
</g>
<g>
</g>
<g>
</g>
<g>
</g>
</svg>
