<?xml version="1.0" encoding="iso-8859-1"?>
<!-- Generator: Adobe Illustrator 19.0.0, SVG Export Plug-In . SVG Version: 6.00 Build 0)  -->
<svg version="1.1" id="Capa_1" xmlns="http://www.w3.org/2000/svg" xmlns:xlink="http://www.w3.org/1999/xlink" x="0px" y="0px"
	 viewBox="0 0 512 512" style="enable-background:new 0 0 512 512;" xml:space="preserve">
<path style="fill:#FFA81F;" d="M270.982,15.139v481.053c0,8.219-6.6,14.879-14.779,14.989c-0.07,0.01-0.15,0.01-0.22,0.01
	c-8.279,0-14.999-6.71-14.999-14.999V270.639H15.412c-8.279,0-14.999-6.719-14.999-14.999c0-8.289,6.719-14.999,14.999-14.999
	h225.573V15.139c0-8.289,6.719-14.999,14.999-14.999c0.07,0,0.15,0,0.22,0.01C264.383,0.26,270.982,6.919,270.982,15.139z"/>
<g>
	<path style="fill:#FF8700;" d="M497.001,240.638H310.462c-8.283,0-14.999,6.715-14.999,14.999c0,8.283,6.716,14.999,14.999,14.999
		h186.539c8.283,0,14.999-6.715,14.999-14.999C512,247.353,505.285,240.638,497.001,240.638z"/>
	<path style="fill:#FF8700;" d="M270.982,15.139v481.053c0,8.219-6.6,14.879-14.779,14.989V0.15
		C264.383,0.26,270.982,6.919,270.982,15.139z"/>
</g>
<g>
	<path style="fill:#FF4F19;" d="M282.154,30.134h-52.347c-8.283,0-14.999-6.715-14.999-14.999s6.715-14.999,14.999-14.999h52.347
		c8.283,0,14.999,6.715,14.999,14.999S290.437,30.134,282.154,30.134z"/>
	<path style="fill:#FF4F19;" d="M282.154,145.635h-52.347c-8.283,0-14.999-6.715-14.999-14.999s6.715-14.999,14.999-14.999h52.347
		c8.283,0,14.999,6.715,14.999,14.999S290.437,145.635,282.154,145.635z"/>
</g>
<g>
	<path style="fill:#FF7A53;" d="M14.999,296.835C6.715,296.835,0,290.12,0,281.837V229.49c0-8.283,6.715-14.999,14.999-14.999
		s14.999,6.715,14.999,14.999v52.347C29.998,290.121,23.282,296.835,14.999,296.835z"/>
	<path style="fill:#FF7A53;" d="M130.5,296.835c-8.283,0-14.999-6.715-14.999-14.999V229.49c0-8.283,6.715-14.999,14.999-14.999
		c8.283,0,14.999,6.715,14.999,14.999v52.347C145.499,290.121,138.783,296.835,130.5,296.835z"/>
</g>
<g>
	<path style="fill:#FF4F19;" d="M381.46,296.808c-8.283,0-14.999-6.715-14.999-14.999v-52.347c0-8.283,6.715-14.999,14.999-14.999
		c8.283,0,14.999,6.715,14.999,14.999v52.347C396.459,290.093,389.743,296.808,381.46,296.808z"/>
	<path style="fill:#FF4F19;" d="M496.962,296.808c-8.283,0-14.999-6.715-14.999-14.999v-52.347c0-8.283,6.715-14.999,14.999-14.999
		c8.283,0,14.999,6.715,14.999,14.999v52.347C511.961,290.093,505.246,296.808,496.962,296.808z"/>
	<path style="fill:#FF4F19;" d="M282.379,511.864h-52.347c-8.283,0-14.999-6.715-14.999-14.999c0-8.283,6.715-14.999,14.999-14.999
		h52.347c8.283,0,14.999,6.715,14.999,14.999C297.378,505.149,290.664,511.864,282.379,511.864z"/>
	<path style="fill:#FF4F19;" d="M282.379,396.364h-52.347c-8.283,0-14.999-6.715-14.999-14.999c0-8.283,6.715-14.999,14.999-14.999
		h52.347c8.283,0,14.999,6.715,14.999,14.999C297.378,389.648,290.664,396.364,282.379,396.364z"/>
</g>
<path style="fill:#4B5BE4;" d="M496.848,197.075c-98.599,0-178.817-80.218-178.817-178.817v-3.123
	c0-8.283,6.715-14.999,14.999-14.999c8.283,0,14.999,6.715,14.999,14.999v3.123c0,82.059,66.761,148.82,148.82,148.82
	c8.283,0,14.999,6.715,14.999,14.999C511.847,190.359,505.132,197.075,496.848,197.075z"/>
<path style="fill:#6B77E8;" d="M178.859,511.484c-8.283,0-14.999-6.715-14.999-14.999v-3.123c0-82.06-66.761-148.821-148.82-148.821
	c-8.283,0-14.999-6.716-14.999-14.999s6.715-14.999,14.999-14.999c98.599,0,178.817,80.218,178.817,178.818v3.123
	C193.858,504.77,187.143,511.484,178.859,511.484z"/>
<g>
</g>
<g>
</g>
<g>
</g>
<g>
</g>
<g>
</g>
<g>
</g>
<g>
</g>
<g>
</g>
<g>
</g>
<g>
</g>
<g>
</g>
<g>
</g>
<g>
</g>
<g>
</g>
<g>
</g>
</svg>
