<?xml version="1.0" encoding="iso-8859-1"?>
<!-- Generator: Adobe Illustrator 19.0.0, SVG Export Plug-In . SVG Version: 6.00 Build 0)  -->
<svg version="1.1" id="Capa_1" xmlns="http://www.w3.org/2000/svg" xmlns:xlink="http://www.w3.org/1999/xlink" x="0px" y="0px"
	 viewBox="0 0 496 496" style="enable-background:new 0 0 496 496;" xml:space="preserve">
<path style="fill:#3F3A34;" d="M156.688,0L40,116.688V496h416V0H156.688z M152,27.312V112H67.312L152,27.312z M440,480H56V128h112
	V16h272V480z"/>
<path style="fill:#FFA64D;" d="M168,379.056L168,379.056c0-2.008,0.464-3.992,1.368-5.792l0,0C178.992,354.024,184,332.8,184,311.28
	v-78.592c-30.712,2.64-55.792,7.104-64,15.32v-16c0,0,0-24,32-32s200,0,224-24v16c0,0,0,24-32,32
	c-6.2,1.552-17.544,2.496-31.912,3.192c0.304,24.216,1.68,104.336,7.912,116.8c8,16,48,8,48,8c0,24-32,40-56,40
	c-7.952,0-14.144-2.632-18.872-6.16C284.536,379.448,280,368.944,280,358.232V228.36c-20.112,0.592-42.44,1.168-64,2.232v148.464
	c0,7.152-5.792,12.944-12.944,12.944h-22.112C173.792,392,168,386.208,168,379.056z"/>
<g>
</g>
<g>
</g>
<g>
</g>
<g>
</g>
<g>
</g>
<g>
</g>
<g>
</g>
<g>
</g>
<g>
</g>
<g>
</g>
<g>
</g>
<g>
</g>
<g>
</g>
<g>
</g>
<g>
</g>
</svg>
