<?xml version="1.0" encoding="iso-8859-1"?>
<!-- Generator: Adobe Illustrator 19.0.0, SVG Export Plug-In . SVG Version: 6.00 Build 0)  -->
<svg version="1.1" id="Layer_1" xmlns="http://www.w3.org/2000/svg" xmlns:xlink="http://www.w3.org/1999/xlink" x="0px" y="0px"
	 viewBox="0 0 512 512" style="enable-background:new 0 0 512 512;" xml:space="preserve">
<g>
	<path style="fill:#666666;" d="M270.174,70.821c1.24-2.241,1.951-4.811,1.951-7.54v-5.629c0-8.62-7.053-15.673-15.672-15.673
		h-0.894c-8.619,0-15.672,7.053-15.672,15.673v5.629c0,2.728,0.711,5.299,1.951,7.54C251.269,70.17,260.74,70.17,270.174,70.821z"/>
	<path style="fill:#666666;" d="M242.561,474.129c-1.689,2.5-2.676,5.506-2.676,8.732v5.631c0,8.619,7.052,15.672,15.672,15.672
		h0.894c8.619,0,15.672-7.053,15.672-15.672v-5.631c0-3.227-0.987-6.232-2.676-8.729
		C260.497,474.714,251.514,474.714,242.561,474.129z"/>
	<path style="fill:#666666;" d="M53.085,259.312c-2.359-1.425-5.11-2.262-8.052-2.262h-5.855c-8.619,0-15.672,7.053-15.672,15.672
		v0.7c0,8.62,7.053,15.672,15.672,15.672h5.855c2.982,0,5.767-0.859,8.146-2.321C52.529,277.633,52.489,268.458,53.085,259.312z"/>
	<path style="fill:#666666;" d="M472.831,257.049h-5.855c-2.942,0-5.693,0.837-8.052,2.263c0.596,9.145,0.556,18.32-0.094,27.461
		c2.379,1.461,5.164,2.321,8.146,2.321h5.855c8.62,0,15.673-7.052,15.673-15.672v-0.7
		C488.504,264.102,481.451,257.049,472.831,257.049z"/>
</g>
<g>
	<path style="fill:#F16A5D;" d="M223.36,162.535c21.279-6.223,44.006-6.209,65.284,0.014c0.298-0.916,0.802-1.767,1.509-2.469
		l64.702-64.311c-61.274-33.906-136.434-33.914-197.707-0.006l64.708,64.318C222.56,160.778,223.062,161.624,223.36,162.535z"/>
	<path style="fill:#F16A5D;" d="M366.583,304.894c0.922,0.296,1.776,0.802,2.483,1.505l64.702,64.31
		c34.113-60.902,34.12-135.61,0.006-196.512l-64.709,64.318c-0.703,0.699-1.553,1.203-2.469,1.5
		C372.855,261.161,372.842,283.746,366.583,304.894z"/>
	<path style="fill:#F16A5D;" d="M290.153,384.833c-0.703-0.7-1.206-1.545-1.504-2.457c-21.279,6.222-44.006,6.209-65.284-0.014
		c-0.298,0.915-0.802,1.766-1.508,2.467l-64.704,64.314c61.274,33.905,136.434,33.913,197.708,0.005L290.153,384.833z"/>
	<path style="fill:#F16A5D;" d="M142.944,306.398c0.706-0.702,1.561-1.208,2.483-1.505c-6.258-21.148-6.273-43.733-0.014-64.881
		c-0.916-0.297-1.766-0.801-2.469-1.5l-64.711-64.318c-34.115,60.902-34.108,135.61,0.005,196.514L142.944,306.398z"/>
</g>
<g style="opacity:0.1;">
	<path d="M169.898,108.435c30.749-22.071,66.306-34.549,102.495-37.44c-39.474-3.153-79.696,5.101-115.244,24.768L169.898,108.435z"
		/>
	<g>
		<path d="M169.897,436.477l-12.748,12.671c35.547,19.667,75.77,27.921,115.243,24.767
			C236.203,471.027,200.645,458.548,169.897,436.477z"/>
		<path d="M100.392,348.692c-19.95-48.769-19.954-103.708-0.003-152.476l-22.155-22.02c-34.115,60.902-34.108,135.61,0.005,196.514
			L100.392,348.692z"/>
	</g>
</g>
<g>
	<path style="fill:#FFEEDC;" d="M151.596,452.114c-1.094,0-2.195-0.286-3.185-0.877c-14.724-8.768-28.379-19.366-40.587-31.499
		c-12.202-12.129-22.864-25.702-31.691-40.34c-1.461-2.424-1.076-5.526,0.935-7.524l65.877-65.475
		c1.176-1.169,2.759-1.807,4.384-1.807c0.456,0,0.914,0.049,1.368,0.151c2.076,0.469,3.766,1.961,4.476,3.955
		c5.441,15.287,14.085,28.888,25.694,40.428c11.609,11.538,25.294,20.13,40.673,25.537c2.006,0.706,3.509,2.385,3.979,4.449
		c0.47,2.064-0.157,4.222-1.662,5.719l-65.876,65.479C154.787,451.496,153.198,452.114,151.596,452.114z"/>
	<path style="fill:#FFEEDC;" d="M364.682,240.319c-0.456,0-0.914-0.049-1.368-0.152c-2.076-0.469-3.767-1.961-4.476-3.955
		c-5.441-15.287-14.085-28.89-25.695-40.428c-11.608-11.538-25.294-20.132-40.673-25.539c-2.006-0.704-3.509-2.385-3.979-4.449
		s0.157-4.221,1.662-5.718l65.875-65.476c1.195-1.188,2.784-1.807,4.386-1.807c1.095,0,2.195,0.287,3.185,0.876
		c14.728,8.773,28.384,19.372,40.587,31.502c12.204,12.128,22.867,25.701,31.691,40.337c1.462,2.426,1.076,5.529-0.934,7.526
		l-65.876,65.476C367.889,239.683,366.306,240.319,364.682,240.319z"/>
	<path style="fill:#FFEEDC;" d="M360.413,452.114c-1.603,0-3.191-0.618-4.386-1.806l-65.875-65.476
		c-1.506-1.498-2.134-3.655-1.662-5.721c0.47-2.062,1.973-3.743,3.979-4.447c15.382-5.407,29.066-14.002,40.674-25.538
		c11.608-11.537,20.253-25.14,25.694-40.426c0.711-1.994,2.4-3.488,4.476-3.955c0.455-0.102,0.913-0.153,1.369-0.153
		c1.625,0,3.208,0.636,4.384,1.807l65.875,65.475c2.01,2,2.395,5.1,0.934,7.526c-8.823,14.637-19.485,28.207-31.69,40.337
		c-12.203,12.13-25.859,22.73-40.587,31.501C362.608,451.828,361.508,452.114,360.413,452.114z"/>
	<path style="fill:#FFEEDC;" d="M147.328,240.319c-1.626,0-3.209-0.636-4.384-1.807l-65.876-65.476
		c-2.01-1.998-2.396-5.1-0.934-7.524c8.822-14.636,19.484-28.208,31.691-40.338c12.205-12.133,25.86-22.731,40.586-31.499
		c0.99-0.588,2.091-0.876,3.185-0.876c1.604,0,3.191,0.616,4.386,1.805l65.875,65.476c1.506,1.496,2.134,3.654,1.662,5.718
		c-0.47,2.064-1.972,3.743-3.979,4.449c-15.381,5.41-29.065,14.002-40.674,25.539c-11.609,11.54-20.254,25.141-25.694,40.426
		c-0.711,1.996-2.399,3.488-4.475,3.957C148.242,240.27,147.784,240.319,147.328,240.319z"/>
</g>
<path d="M472.831,249.213h-6.963c-2.819-25.544-10.35-50.756-22.763-74.263c2.113-4.196,2.017-9.276-0.519-13.483
	c-4.606-7.64-9.75-15.08-15.289-22.111c-2.677-3.4-7.605-3.985-11.005-1.307c-3.399,2.678-3.985,7.604-1.307,11.004
	c4.862,6.173,9.397,12.685,13.487,19.366l-63.141,62.759c-5.047-13.26-12.386-25.292-21.866-35.881l36.289-36.288
	c3.06-3.062,3.06-8.023,0-11.083c-3.06-3.061-8.022-3.061-11.082-0.001l-36.402,36.402c-10.311-8.853-21.943-15.753-34.707-20.564
	l63.096-62.715c12.631,7.631,24.455,16.683,35.162,26.918c3.128,2.992,8.09,2.88,11.08-0.249c2.991-3.127,2.879-8.089-0.25-11.079
	c-11.861-11.339-24.997-21.331-39.053-29.703c-2.174-1.291-4.66-1.975-7.186-1.975c-2.23,0-4.376,0.529-6.311,1.506
	c-0.93-0.486-1.861-0.971-2.798-1.441l-78.66-78.184c-9.175-9.119-24.105-9.119-33.28,0l-21.274,21.146
	c-3.07,3.051-3.085,8.013-0.033,11.081c3.05,3.072,8.013,3.086,11.082,0.034l21.274-21.147c3.082-3.065,8.1-3.064,11.184,0
	l53.072,52.752c-11.312-3.243-22.919-5.538-34.708-6.866v-6.188c0-12.963-10.546-23.509-23.509-23.509h-0.894
	c-12.963,0-23.509,10.546-23.509,23.509v6.212c-11.817,1.333-23.431,3.626-34.732,6.867l14.06-13.976
	c3.07-3.051,3.085-8.013,0.033-11.082c-3.05-3.069-8.012-3.082-11.082-0.033l-39.665,39.427c-0.92,0.463-1.841,0.924-2.754,1.4
	c-1.934-0.978-4.08-1.506-6.312-1.506c-2.528,0-5.012,0.682-7.194,1.979c-15.279,9.099-29.443,20.092-42.101,32.675
	c-12.661,12.583-23.723,26.665-32.878,41.852c-2.529,4.194-2.633,9.255-0.54,13.443c-12.166,22.997-19.893,48.117-22.779,74.302
	h-6.926c-12.963,0-23.509,10.547-23.509,23.509v0.7c0,12.963,10.546,23.509,23.509,23.509h7.057
	c2.992,25.742,10.673,50.434,22.646,73.07c-2.093,4.188-1.988,9.249,0.54,13.444c9.157,15.189,20.219,29.271,32.878,41.853
	c12.666,12.589,26.831,23.581,42.098,32.672c2.177,1.297,4.664,1.982,7.197,1.982c2.252,0,4.42-0.535,6.37-1.529
	c13.216,6.899,27.151,12.426,41.58,16.392c10.663,2.931,21.537,5.007,32.503,6.242v7.434c0,12.962,10.546,23.509,23.509,23.509
	h0.894c12.963,0,23.509-10.547,23.509-23.509v-7.426c7.984-0.898,15.924-2.248,23.77-4.05c4.218-0.968,6.852-5.172,5.884-9.391
	c-0.969-4.219-5.179-6.858-9.392-5.884c-31.757,7.291-65.135,6.589-96.526-2.038c-11.511-3.163-22.68-7.402-33.379-12.596
	l56.179-55.838c9.681,2.359,19.593,3.553,29.508,3.553c9.914,0,19.825-1.194,29.505-3.553l56.198,55.858
	c-3.72,1.805-7.496,3.509-11.344,5.078c-4.007,1.634-5.931,6.207-4.297,10.215c1.239,3.038,4.168,4.879,7.259,4.879
	c0.985,0,1.987-0.187,2.956-0.583c6.092-2.485,12.03-5.247,17.82-8.264c1.936,0.974,4.082,1.499,6.312,1.499
	c2.532,0,5.021-0.685,7.194-1.981c15.276-9.097,29.441-20.091,42.101-32.675c12.661-12.585,23.722-26.665,32.878-41.851
	c2.55-4.233,2.628-9.348,0.474-13.559c12.045-22.906,19.618-47.675,22.614-72.955h7.155c12.963,0,23.509-10.546,23.509-23.509v-0.7
	C496.34,259.759,485.794,249.213,472.831,249.213z M39.179,281.259c-4.322,0-7.836-3.515-7.836-7.837v-0.7
	c0-4.322,3.515-7.836,7.836-7.836h5.778c-0.09,2.514-0.148,5.036-0.148,7.565c0,2.947,0.084,5.881,0.204,8.807L39.179,281.259
	L39.179,281.259z M264.288,488.491c0,4.322-3.515,7.836-7.836,7.836h-0.894c-4.322,0-7.836-3.514-7.836-7.836v-6.252
	c2.765,0.108,5.533,0.167,8.301,0.167c2.756,0,5.512-0.072,8.266-0.179v6.263H264.288z M247.721,57.654
	c0-4.322,3.515-7.837,7.836-7.837h0.894c4.322,0,7.836,3.515,7.836,7.837v5.002c-5.41-0.208-10.849-0.218-16.306-0.013
	c-0.087,0.002-0.173,0.01-0.26,0.015V57.654z M248.57,78.304c32.58-1.223,64.47,5.578,93.138,19.482l-56.21,55.871
	c-19.357-4.719-39.642-4.728-58.999-0.013l-56.183-55.841C194.513,86.066,221.081,79.338,248.57,78.304z M113.349,130.731
	c11.454-11.386,24.235-21.37,38.001-29.683l63.096,62.715c-12.766,4.811-24.397,11.71-34.709,20.564l-36.402-36.402
	c-3.061-3.059-8.022-3.059-11.082,0c-3.061,3.062-3.061,8.023,0,11.083l36.289,36.288c-9.478,10.591-16.818,22.621-21.863,35.88
	l-63.14-62.757C91.892,154.766,101.917,142.092,113.349,130.731z M151.35,443.863c-13.761-8.31-26.541-18.292-38.002-29.681
	c-11.429-11.361-21.455-24.037-29.812-37.688l63.141-62.758c4.915,12.914,12.008,24.663,21.133,35.051l-35.558,35.558
	c-3.061,3.062-3.061,8.022,0,11.083c1.53,1.53,3.536,2.295,5.541,2.295c2.005,0,4.011-0.765,5.541-2.295l35.568-35.568
	c10.518,9.203,22.433,16.35,35.542,21.29L151.35,443.863z M281.193,376.208c-16.539,3.935-33.838,3.935-50.377-0.001
	c-1.331-4.164-4.489-7.462-8.677-8.936c-14.272-5.02-26.973-12.994-37.748-23.703c-10.772-10.709-18.792-23.324-23.837-37.5
	c-1.489-4.181-4.819-7.328-9.022-8.643c-0.419-1.743-0.812-3.494-1.145-5.263c-0.8-4.253-4.897-7.052-9.149-6.253
	c-4.253,0.8-7.053,4.895-6.253,9.149c0.425,2.264,0.93,4.505,1.483,6.727l-56.246,55.903
	c-12.901-26.214-19.742-55.199-19.742-85.236c0-30.035,6.842-59.016,19.742-85.228l56.252,55.911
	c-1.414,5.675-2.429,11.463-3.006,17.323c-0.424,4.307,2.723,8.143,7.031,8.567c4.31,0.42,8.142-2.724,8.566-7.031
	c0.483-4.906,1.326-9.752,2.482-14.513c4.192-1.317,7.519-4.463,9.007-8.642c5.045-14.173,13.064-26.789,23.836-37.496
	c10.774-10.709,23.475-18.684,37.75-23.706c4.187-1.473,7.344-4.773,8.674-8.936c16.539-3.937,33.839-3.937,50.378,0
	c1.332,4.167,4.491,7.468,8.676,8.936c14.271,5.019,26.971,12.994,37.748,23.706c10.772,10.705,18.79,23.321,23.837,37.5
	c1.494,4.193,4.839,7.345,9.058,8.655c1.939,8.079,2.943,16.443,2.943,24.959c0,8.516-1.005,16.877-2.943,24.957
	c-4.215,1.305-7.563,4.459-9.059,8.658c-5.046,14.176-13.065,26.793-23.835,37.496c-10.777,10.711-23.478,18.687-37.744,23.704
	C285.685,368.742,282.526,372.04,281.193,376.208z M398.661,414.18c-11.455,11.386-24.234,21.367-38.003,29.683l-63.095-62.714
	c13.109-4.939,25.024-12.086,35.543-21.292l35.568,35.568c1.53,1.53,3.536,2.295,5.541,2.295c2.005,0,4.011-0.765,5.541-2.295
	c3.061-3.062,3.061-8.022,0-11.083l-35.557-35.556c9.123-10.387,16.217-22.137,21.133-35.053l63.139,62.758
	C420.118,390.143,410.094,402.816,398.661,414.18z M431.696,357.601l-56.125-55.787c2.341-9.494,3.558-19.331,3.558-29.357
	c0-10.027-1.217-19.867-3.559-29.361l56.174-55.834C458.336,241.382,457.708,304.464,431.696,357.601z M480.667,273.422
	c0,4.322-3.515,7.837-7.837,7.837h-5.9c0.235-5.452,0.261-10.913,0.07-16.372h5.828c4.322,0,7.837,3.514,7.837,7.836v0.7H480.667z"
	/>
<g>
</g>
<g>
</g>
<g>
</g>
<g>
</g>
<g>
</g>
<g>
</g>
<g>
</g>
<g>
</g>
<g>
</g>
<g>
</g>
<g>
</g>
<g>
</g>
<g>
</g>
<g>
</g>
<g>
</g>
</svg>
