<?xml version="1.0" encoding="iso-8859-1"?>
<!-- Generator: Adobe Illustrator 19.0.0, SVG Export Plug-In . SVG Version: 6.00 Build 0)  -->
<svg version="1.1" id="Capa_1" xmlns="http://www.w3.org/2000/svg" xmlns:xlink="http://www.w3.org/1999/xlink" x="0px" y="0px"
	 viewBox="0 0 512 512" style="enable-background:new 0 0 512 512;" xml:space="preserve">
<path style="fill:#4747C9;" d="M384.136,504.5H127.864c-19.597,0-35.631-16.034-35.631-35.631V43.131
	c0-19.597,16.034-35.631,35.631-35.631h256.271c19.597,0,35.631,16.034,35.631,35.631v425.737
	C419.767,488.466,403.733,504.5,384.136,504.5z"/>
<path style="fill:#3535AA;" d="M184.009,468.869V43.131c0-19.597,16.034-35.631,35.631-35.631h-91.776
	c-19.597,0-35.631,16.034-35.631,35.631v425.737c0,19.597,16.034,35.631,35.631,35.631h91.776
	C200.044,504.5,184.009,488.466,184.009,468.869z"/>
<path style="fill:#006D5D;" d="M362.474,150.796H146.576c-10.061,0-18.217-8.156-18.217-18.217V60.255
	c0-10.061,8.156-18.217,18.217-18.217h215.898c10.061,0,18.217,8.156,18.217,18.217v72.323
	C380.691,142.64,372.535,150.796,362.474,150.796z"/>
<g>
	<path style="fill:#005B4E;" d="M362.474,42.038H146.576c-10.061,0-18.217,8.156-18.217,18.217v32.782
		c0-10.061,8.156-18.217,18.217-18.217h215.898c10.061,0,18.217,8.156,18.217,18.217V60.255
		C380.691,50.194,372.535,42.038,362.474,42.038z"/>
	<path style="fill:#005B4E;" d="M146.576,42.038c-10.061,0-18.217,8.156-18.217,18.217v72.323c0,10.061,8.156,18.217,18.217,18.217
		h49.989c3.655-50.059,15.628-85.13,27.988-108.758h-77.977V42.038z"/>
</g>
<path style="fill:#898890;" d="M190.24,213.781h-30.2c-8.519,0-15.425-6.906-15.425-15.425v-0.011
	c0-8.519,6.906-15.425,15.425-15.425h30.201c8.519,0,15.425,6.906,15.425,15.425v0.011
	C205.666,206.875,198.76,213.781,190.24,213.781z"/>
<path style="fill:#787680;" d="M165.114,198.356v-0.011c0-8.519,6.906-15.425,15.425-15.425h-20.5
	c-8.519,0-15.425,6.906-15.425,15.425v0.011c0,8.519,6.906,15.425,15.425,15.425h20.5
	C172.021,213.781,165.114,206.875,165.114,198.356z"/>
<path style="fill:#898890;" d="M351.96,213.781h-30.2c-8.519,0-15.425-6.906-15.425-15.425v-0.011
	c0-8.519,6.906-15.425,15.425-15.425h30.201c8.519,0,15.425,6.906,15.425,15.425v0.011
	C367.386,206.875,360.479,213.781,351.96,213.781z"/>
<circle style="fill:#FF3F62;" cx="256" cy="196.26" r="25.584"/>
<path style="fill:#FF0C38;" d="M250.916,196.258c0-10.484,6.308-19.489,15.334-23.441c-3.139-1.375-6.604-2.142-10.25-2.142
	c-14.13,0-25.584,11.454-25.584,25.584S241.87,221.843,256,221.843c3.646,0,7.111-0.768,10.25-2.142
	C257.225,215.747,250.916,206.741,250.916,196.258z"/>
<path style="fill:#787680;" d="M326.835,198.356v-0.011c0-8.519,6.906-15.425,15.425-15.425h-20.5
	c-8.519,0-15.425,6.906-15.425,15.425v0.011c0,8.519,6.906,15.425,15.425,15.425h20.5
	C333.74,213.781,326.835,206.875,326.835,198.356z"/>
<path style="fill:#96C8EF;" d="M165.109,270.767h-28.165c-4.742,0-8.586-3.844-8.586-8.586V248.49c0-4.742,3.844-8.586,8.586-8.586
	h28.165c4.742,0,8.586,3.844,8.586,8.586v13.691C173.695,266.923,169.851,270.767,165.109,270.767z"/>
<path style="fill:#78B9EB;" d="M144.614,262.181V248.49c0-4.742,3.844-8.586,8.586-8.586h-16.256c-4.742,0-8.586,3.844-8.586,8.586
	v13.691c0,4.742,3.844,8.586,8.586,8.586H153.2C148.458,270.767,144.614,266.923,144.614,262.181z"/>
<path style="fill:#96C8EF;" d="M234.108,270.767h-28.165c-4.742,0-8.586-3.844-8.586-8.586V248.49c0-4.742,3.844-8.586,8.586-8.586
	h28.165c4.742,0,8.586,3.844,8.586,8.586v13.691C242.694,266.923,238.85,270.767,234.108,270.767z"/>
<g>
	<path style="fill:#91DC5A;" d="M303.107,270.767h-28.165c-4.742,0-8.586-3.844-8.586-8.586V248.49c0-4.742,3.844-8.586,8.586-8.586
		h28.165c4.742,0,8.586,3.844,8.586,8.586v13.691C311.692,266.923,307.849,270.767,303.107,270.767z"/>
	<path style="fill:#91DC5A;" d="M372.105,270.767H343.94c-4.742,0-8.586-3.844-8.586-8.586V248.49c0-4.742,3.844-8.586,8.586-8.586
		h28.165c4.742,0,8.586,3.844,8.586,8.586v13.691C380.691,266.923,376.847,270.767,372.105,270.767z"/>
</g>
<path style="fill:#78B9EB;" d="M213.613,262.181V248.49c0-4.742,3.844-8.586,8.586-8.586h-16.256c-4.742,0-8.586,3.844-8.586,8.586
	v13.691c0,4.742,3.844,8.586,8.586,8.586h16.256C217.457,270.767,213.613,266.923,213.613,262.181z"/>
<g>
	<path style="fill:#6DC82A;" d="M282.612,262.181V248.49c0-4.742,3.844-8.586,8.586-8.586h-16.256c-4.742,0-8.586,3.844-8.586,8.586
		v13.691c0,4.742,3.844,8.586,8.586,8.586h16.256C286.456,270.767,282.612,266.923,282.612,262.181z"/>
	<path style="fill:#6DC82A;" d="M351.611,262.181V248.49c0-4.742,3.844-8.586,8.586-8.586H343.94c-4.742,0-8.586,3.844-8.586,8.586
		v13.691c0,4.742,3.844,8.586,8.586,8.586h16.256C355.455,270.767,351.611,266.923,351.611,262.181z"/>
</g>
<path style="fill:#ACABB1;" d="M165.107,337.017h-28.161c-4.743,0-8.588-3.845-8.588-8.588v-28.161c0-4.743,3.845-8.588,8.588-8.588
	h28.161c4.743,0,8.588,3.845,8.588,8.588v28.161C173.695,333.172,169.85,337.017,165.107,337.017z"/>
<path style="fill:#898890;" d="M144.614,328.429v-28.161c0-4.743,3.845-8.588,8.588-8.588h-16.256c-4.743,0-8.588,3.845-8.588,8.588
	v28.161c0,4.743,3.845,8.588,8.588,8.588h16.256C148.459,337.017,144.614,333.172,144.614,328.429z"/>
<g>
	<path style="fill:#ACABB1;" d="M234.106,337.017h-28.161c-4.743,0-8.588-3.845-8.588-8.588v-28.161
		c0-4.743,3.845-8.588,8.588-8.588h28.161c4.743,0,8.588,3.845,8.588,8.588v28.161C242.694,333.172,238.849,337.017,234.106,337.017
		z"/>
	<path style="fill:#ACABB1;" d="M303.105,337.017h-28.161c-4.743,0-8.588-3.845-8.588-8.588v-28.161
		c0-4.743,3.845-8.588,8.588-8.588h28.161c4.743,0,8.588,3.845,8.588,8.588v28.161C311.692,333.172,307.848,337.017,303.105,337.017
		z"/>
</g>
<path style="fill:#FFDA44;" d="M372.103,337.017h-28.161c-4.743,0-8.588-3.845-8.588-8.588v-28.161c0-4.743,3.845-8.588,8.588-8.588
	h28.161c4.743,0,8.588,3.845,8.588,8.588v28.161C380.691,333.172,376.846,337.017,372.103,337.017z"/>
<g>
	<path style="fill:#ACABB1;" d="M165.107,403.267h-28.161c-4.743,0-8.588-3.845-8.588-8.588v-28.161
		c0-4.743,3.845-8.588,8.588-8.588h28.161c4.743,0,8.588,3.845,8.588,8.588v28.161C173.695,399.422,169.85,403.267,165.107,403.267z
		"/>
	<path style="fill:#ACABB1;" d="M234.106,403.267h-28.161c-4.743,0-8.588-3.845-8.588-8.588v-28.161
		c0-4.743,3.845-8.588,8.588-8.588h28.161c4.743,0,8.588,3.845,8.588,8.588v28.161C242.694,399.422,238.849,403.267,234.106,403.267
		z"/>
	<path style="fill:#ACABB1;" d="M303.105,403.267h-28.161c-4.743,0-8.588-3.845-8.588-8.588v-28.161
		c0-4.743,3.845-8.588,8.588-8.588h28.161c4.743,0,8.588,3.845,8.588,8.588v28.161C311.692,399.422,307.848,403.267,303.105,403.267
		z"/>
	<path style="fill:#ACABB1;" d="M165.107,469.516h-28.161c-4.743,0-8.588-3.845-8.588-8.588v-28.161
		c0-4.743,3.845-8.588,8.588-8.588h28.161c4.743,0,8.588,3.845,8.588,8.588v28.161C173.695,465.671,169.85,469.516,165.107,469.516z
		"/>
	<path style="fill:#ACABB1;" d="M234.106,469.516h-28.161c-4.743,0-8.588-3.845-8.588-8.588v-28.161
		c0-4.743,3.845-8.588,8.588-8.588h28.161c4.743,0,8.588,3.845,8.588,8.588v28.161C242.694,465.671,238.849,469.516,234.106,469.516
		z"/>
	<path style="fill:#ACABB1;" d="M303.105,469.516h-28.161c-4.743,0-8.588-3.845-8.588-8.588v-28.161
		c0-4.743,3.845-8.588,8.588-8.588h28.161c4.743,0,8.588,3.845,8.588,8.588v28.161C311.692,465.671,307.848,469.516,303.105,469.516
		z"/>
</g>
<path style="fill:#FF3F62;" d="M370.885,469.516H342.33c-5.416,0-9.806-4.39-9.806-9.806v-91.975c0-5.416,4.39-9.806,9.806-9.806
	h28.555c5.416,0,9.806,4.39,9.806,9.806v91.975C380.691,465.126,376.301,469.516,370.885,469.516z"/>
<path style="fill:#FF0C38;" d="M351.524,459.711v-91.975c0-5.416,4.39-9.806,9.806-9.806h-19c-5.416,0-9.806,4.39-9.806,9.806
	v91.975c0,5.416,4.39,9.806,9.806,9.806h19C355.915,469.516,351.524,465.126,351.524,459.711z"/>
<g>
	<path style="fill:#898890;" d="M213.613,328.705v-28.161c0-4.743,3.845-8.588,8.588-8.588h-16.256
		c-4.743,0-8.588,3.845-8.588,8.588v28.161c0,4.743,3.845,8.588,8.588,8.588h16.256
		C217.458,337.293,213.613,333.448,213.613,328.705z"/>
	<path style="fill:#898890;" d="M282.612,460.928v-28.161c0-4.743,3.845-8.588,8.588-8.588h-16.256
		c-4.743,0-8.588,3.845-8.588,8.588v28.161c0,4.743,3.845,8.588,8.588,8.588h16.256
		C286.457,469.516,282.612,465.671,282.612,460.928z"/>
	<path style="fill:#898890;" d="M213.613,460.928v-28.161c0-4.743,3.845-8.588,8.588-8.588h-16.256
		c-4.743,0-8.588,3.845-8.588,8.588v28.161c0,4.743,3.845,8.588,8.588,8.588h16.256
		C217.458,469.516,213.613,465.671,213.613,460.928z"/>
	<path style="fill:#898890;" d="M144.614,460.928v-28.161c0-4.743,3.845-8.588,8.588-8.588h-16.256
		c-4.743,0-8.588,3.845-8.588,8.588v28.161c0,4.743,3.845,8.588,8.588,8.588h16.256
		C148.459,469.516,144.614,465.671,144.614,460.928z"/>
	<path style="fill:#898890;" d="M282.612,394.679v-28.161c0-4.743,3.845-8.588,8.588-8.588h-16.256
		c-4.743,0-8.588,3.845-8.588,8.588v28.161c0,4.743,3.845,8.588,8.588,8.588h16.256
		C286.457,403.267,282.612,399.422,282.612,394.679z"/>
	<path style="fill:#898890;" d="M213.613,394.679v-28.161c0-4.743,3.845-8.588,8.588-8.588h-16.256
		c-4.743,0-8.588,3.845-8.588,8.588v28.161c0,4.743,3.845,8.588,8.588,8.588h16.256
		C217.458,403.267,213.613,399.422,213.613,394.679z"/>
	<path style="fill:#898890;" d="M144.614,394.679v-28.161c0-4.743,3.845-8.588,8.588-8.588h-16.256
		c-4.743,0-8.588,3.845-8.588,8.588v28.161c0,4.743,3.845,8.588,8.588,8.588h16.256
		C148.459,403.267,144.614,399.422,144.614,394.679z"/>
	<path style="fill:#898890;" d="M282.612,328.429v-28.161c0-4.743,3.845-8.588,8.588-8.588h-16.256
		c-4.743,0-8.588,3.845-8.588,8.588v28.161c0,4.743,3.845,8.588,8.588,8.588h16.256
		C286.457,337.017,282.612,333.172,282.612,328.429z"/>
</g>
<path style="fill:#FFCD00;" d="M351.611,328.429v-28.161c0-4.743,3.845-8.588,8.588-8.588h-16.256c-4.743,0-8.588,3.845-8.588,8.588
	v28.161c0,4.743,3.845,8.588,8.588,8.588h16.256C355.456,337.017,351.611,333.172,351.611,328.429z"/>
<path d="M384.136,512H127.864c-23.783,0-43.131-19.349-43.131-43.131V293.667c0-4.142,3.358-7.5,7.5-7.5s7.5,3.358,7.5,7.5v175.201
	c0,15.512,12.62,28.131,28.131,28.131h256.271c15.512,0,28.131-12.62,28.131-28.131V43.131c0-15.512-12.62-28.131-28.131-28.131
	H127.864c-15.512,0-28.131,12.62-28.131,28.131v219.202c0,4.142-3.358,7.5-7.5,7.5s-7.5-3.358-7.5-7.5V43.131
	C84.733,19.349,104.082,0,127.864,0h256.271c23.783,0,43.131,19.349,43.131,43.131v425.737C427.267,492.651,407.918,512,384.136,512
	z"/>
<path d="M362.474,158.296H146.576c-14.181,0-25.718-11.537-25.718-25.717V60.255c0-14.181,11.537-25.718,25.718-25.718h215.898
	c14.181,0,25.718,11.537,25.718,25.718V90c0,4.142-3.358,7.5-7.5,7.5s-7.5-3.358-7.5-7.5V60.255c0-5.91-4.808-10.718-10.718-10.718
	H146.576c-5.91,0-10.718,4.808-10.718,10.718v72.323c0,5.91,4.808,10.717,10.718,10.717h215.898c5.91,0,10.718-4.808,10.718-10.717
	v-12.246c0-4.142,3.358-7.5,7.5-7.5s7.5,3.358,7.5,7.5v12.246C388.191,146.759,376.654,158.296,362.474,158.296z"/>
<path d="M190.241,221.281H160.04c-12.641,0-22.925-10.284-22.925-22.925c0-12.652,10.284-22.937,22.925-22.937h30.201
	c12.641,0,22.925,10.284,22.925,22.925C213.166,210.997,202.882,221.281,190.241,221.281z M160.04,190.419
	c-4.37,0-7.925,3.555-7.925,7.925c0,4.381,3.555,7.937,7.925,7.937h30.201c4.37,0,7.925-3.555,7.925-7.925
	c0-4.381-3.555-7.937-7.925-7.937H160.04z"/>
<path d="M351.96,221.281h-30.201c-12.641,0-22.925-10.284-22.925-22.925c0-12.652,10.284-22.937,22.925-22.937h30.201
	c12.641,0,22.925,10.284,22.925,22.925C374.886,210.997,364.602,221.281,351.96,221.281z M321.759,190.419
	c-4.37,0-7.925,3.555-7.925,7.925c0,4.381,3.555,7.937,7.925,7.937h30.201c4.37,0,7.925-3.555,7.925-7.925
	c0-4.381-3.555-7.937-7.925-7.937H321.759z"/>
<path d="M256,229.341c-18.243,0-33.084-14.841-33.084-33.084c0-18.242,14.841-33.083,33.084-33.083s33.084,14.841,33.084,33.083
	C289.085,214.5,274.243,229.341,256,229.341z M256,178.174c-9.972,0-18.084,8.112-18.084,18.083c0,9.972,8.112,18.084,18.084,18.084
	c9.972,0,18.084-8.112,18.084-18.084C274.085,186.286,265.972,178.174,256,178.174z"/>
<path d="M165.109,278.267h-28.166c-8.87,0-16.086-7.216-16.086-16.085V248.49c0-8.87,7.216-16.085,16.086-16.085h28.166
	c8.87,0,16.085,7.216,16.085,16.085v13.691C181.195,271.051,173.979,278.267,165.109,278.267z M136.944,247.405
	c-0.599,0-1.086,0.487-1.086,1.085v13.691c0,0.599,0.487,1.085,1.086,1.085h28.166c0.599,0,1.085-0.487,1.085-1.085V248.49
	c0-0.599-0.487-1.085-1.085-1.085H136.944z"/>
<path d="M234.108,278.267h-28.166c-8.87,0-16.085-7.216-16.085-16.085V248.49c0-8.87,7.216-16.085,16.085-16.085h28.166
	c8.87,0,16.086,7.216,16.086,16.085v13.691C250.194,271.051,242.978,278.267,234.108,278.267z M205.942,247.405
	c-0.599,0-1.085,0.487-1.085,1.085v13.691c0,0.599,0.487,1.085,1.085,1.085h28.166c0.599,0,1.086-0.487,1.086-1.085V248.49
	c0-0.599-0.487-1.085-1.086-1.085H205.942z"/>
<path d="M303.107,278.267h-28.166c-8.87,0-16.086-7.216-16.086-16.085V248.49c0-8.87,7.216-16.085,16.086-16.085h28.166
	c8.87,0,16.085,7.216,16.085,16.085v13.691C319.192,271.051,311.977,278.267,303.107,278.267z M274.941,247.405
	c-0.599,0-1.086,0.487-1.086,1.085v13.691c0,0.599,0.487,1.085,1.086,1.085h28.166c0.599,0,1.085-0.487,1.085-1.085V248.49
	c0-0.599-0.487-1.085-1.085-1.085H274.941z"/>
<path d="M372.105,278.267H343.94c-8.87,0-16.085-7.216-16.085-16.085V248.49c0-8.87,7.216-16.085,16.085-16.085h28.166
	c8.87,0,16.086,7.216,16.086,16.085v13.691C388.191,271.051,380.975,278.267,372.105,278.267z M343.94,247.405
	c-0.599,0-1.085,0.487-1.085,1.085v13.691c0,0.599,0.487,1.085,1.085,1.085h28.166c0.599,0,1.086-0.487,1.086-1.085V248.49
	c0-0.599-0.487-1.085-1.086-1.085H343.94z"/>
<path d="M165.107,344.517h-28.161c-8.871,0-16.088-7.217-16.088-16.088v-28.161c0-8.871,7.217-16.088,16.088-16.088h28.161
	c8.871,0,16.088,7.217,16.088,16.088v28.161C181.195,337.3,173.978,344.517,165.107,344.517z M136.946,299.18
	c-0.6,0-1.088,0.488-1.088,1.088v28.161c0,0.6,0.488,1.088,1.088,1.088h28.161c0.6,0,1.088-0.488,1.088-1.088v-28.161
	c0-0.6-0.488-1.088-1.088-1.088H136.946z"/>
<path d="M234.106,344.517h-28.161c-8.871,0-16.088-7.217-16.088-16.088v-28.161c0-8.871,7.217-16.088,16.088-16.088h28.161
	c8.871,0,16.088,7.217,16.088,16.088v28.161C250.194,337.3,242.977,344.517,234.106,344.517z M205.945,299.18
	c-0.6,0-1.088,0.488-1.088,1.088v28.161c0,0.6,0.488,1.088,1.088,1.088h28.161c0.6,0,1.088-0.488,1.088-1.088v-28.161
	c0-0.6-0.488-1.088-1.088-1.088H205.945z"/>
<path d="M303.104,344.517h-28.161c-8.871,0-16.088-7.217-16.088-16.088v-28.161c0-8.871,7.217-16.088,16.088-16.088h28.161
	c8.871,0,16.088,7.217,16.088,16.088v28.161C319.192,337.3,311.977,344.517,303.104,344.517z M274.943,299.18
	c-0.6,0-1.088,0.488-1.088,1.088v28.161c0,0.6,0.488,1.088,1.088,1.088h28.161c0.6,0,1.088-0.488,1.088-1.088v-28.161
	c0-0.6-0.488-1.088-1.088-1.088H274.943z"/>
<path d="M372.103,344.517h-28.161c-8.871,0-16.088-7.217-16.088-16.088v-28.161c0-8.871,7.217-16.088,16.088-16.088h28.161
	c8.871,0,16.088,7.217,16.088,16.088v28.161C388.191,337.3,380.974,344.517,372.103,344.517z M343.942,299.18
	c-0.6,0-1.088,0.488-1.088,1.088v28.161c0,0.6,0.488,1.088,1.088,1.088h28.161c0.6,0,1.088-0.488,1.088-1.088v-28.161
	c0-0.6-0.488-1.088-1.088-1.088H343.942z"/>
<path d="M165.107,410.767h-28.161c-8.871,0-16.088-7.217-16.088-16.088v-28.161c0-8.871,7.217-16.088,16.088-16.088h28.161
	c8.871,0,16.088,7.217,16.088,16.088v28.161C181.195,403.55,173.978,410.767,165.107,410.767z M136.946,365.43
	c-0.6,0-1.088,0.488-1.088,1.088v28.161c0,0.6,0.488,1.088,1.088,1.088h28.161c0.6,0,1.088-0.488,1.088-1.088v-28.161
	c0-0.6-0.488-1.088-1.088-1.088H136.946z"/>
<path d="M234.106,410.767h-28.161c-8.871,0-16.088-7.217-16.088-16.088v-28.161c0-8.871,7.217-16.088,16.088-16.088h28.161
	c8.871,0,16.088,7.217,16.088,16.088v28.161C250.194,403.55,242.977,410.767,234.106,410.767z M205.945,365.43
	c-0.6,0-1.088,0.488-1.088,1.088v28.161c0,0.6,0.488,1.088,1.088,1.088h28.161c0.6,0,1.088-0.488,1.088-1.088v-28.161
	c0-0.6-0.488-1.088-1.088-1.088H205.945z"/>
<path d="M303.104,410.767h-28.161c-8.871,0-16.088-7.217-16.088-16.088v-28.161c0-8.871,7.217-16.088,16.088-16.088h28.161
	c8.871,0,16.088,7.217,16.088,16.088v28.161C319.192,403.55,311.977,410.767,303.104,410.767z M274.943,365.43
	c-0.6,0-1.088,0.488-1.088,1.088v28.161c0,0.6,0.488,1.088,1.088,1.088h28.161c0.6,0,1.088-0.488,1.088-1.088v-28.161
	c0-0.6-0.488-1.088-1.088-1.088H274.943z"/>
<path d="M165.107,477.017h-28.161c-8.871,0-16.088-7.217-16.088-16.088v-28.161c0-8.871,7.217-16.088,16.088-16.088h28.161
	c8.871,0,16.088,7.217,16.088,16.088v28.161C181.195,469.8,173.978,477.017,165.107,477.017z M136.946,431.68
	c-0.6,0-1.088,0.488-1.088,1.088v28.161c0,0.6,0.488,1.088,1.088,1.088h28.161c0.6,0,1.088-0.488,1.088-1.088v-28.161
	c0-0.6-0.488-1.088-1.088-1.088H136.946z"/>
<path d="M234.106,477.017h-28.161c-8.871,0-16.088-7.217-16.088-16.088v-28.161c0-8.871,7.217-16.088,16.088-16.088h28.161
	c8.871,0,16.088,7.217,16.088,16.088v28.161C250.194,469.8,242.977,477.017,234.106,477.017z M205.945,431.68
	c-0.6,0-1.088,0.488-1.088,1.088v28.161c0,0.6,0.488,1.088,1.088,1.088h28.161c0.6,0,1.088-0.488,1.088-1.088v-28.161
	c0-0.6-0.488-1.088-1.088-1.088H205.945z"/>
<path d="M303.104,477.017h-28.161c-8.871,0-16.088-7.217-16.088-16.088v-28.161c0-8.871,7.217-16.088,16.088-16.088h28.161
	c8.871,0,16.088,7.217,16.088,16.088v28.161C319.192,469.8,311.977,477.017,303.104,477.017z M274.943,431.68
	c-0.6,0-1.088,0.488-1.088,1.088v28.161c0,0.6,0.488,1.088,1.088,1.088h28.161c0.6,0,1.088-0.488,1.088-1.088v-28.161
	c0-0.6-0.488-1.088-1.088-1.088H274.943z"/>
<path d="M370.885,477.017H342.33c-9.542,0-17.306-7.764-17.306-17.306V454c0-4.142,3.358-7.5,7.5-7.5s7.5,3.358,7.5,7.5v5.711
	c0,1.271,1.034,2.306,2.306,2.306h28.555c1.271,0,2.306-1.035,2.306-2.306v-91.975c0-1.271-1.035-2.306-2.306-2.306H342.33
	c-1.271,0-2.306,1.034-2.306,2.306v56.445c0,4.142-3.358,7.5-7.5,7.5s-7.5-3.358-7.5-7.5v-56.445
	c0-9.542,7.763-17.306,17.306-17.306h28.555c9.542,0,17.306,7.763,17.306,17.306v91.975
	C388.191,469.253,380.428,477.017,370.885,477.017z"/>
<g>
</g>
<g>
</g>
<g>
</g>
<g>
</g>
<g>
</g>
<g>
</g>
<g>
</g>
<g>
</g>
<g>
</g>
<g>
</g>
<g>
</g>
<g>
</g>
<g>
</g>
<g>
</g>
<g>
</g>
</svg>
