<?xml version="1.0" encoding="iso-8859-1"?>
<!-- Generator: Adobe Illustrator 19.0.0, SVG Export Plug-In . SVG Version: 6.00 Build 0)  -->
<svg version="1.1" id="Capa_1" xmlns="http://www.w3.org/2000/svg" xmlns:xlink="http://www.w3.org/1999/xlink" x="0px" y="0px"
	 viewBox="0 0 496.485 496.485" style="enable-background:new 0 0 496.485 496.485;" xml:space="preserve">
<rect x="150.342" y="407.335" style="fill:#FFCB5A;" width="195.801" height="47.678"/>
<g>
	<polygon style="fill:#FFBD49;" points="147.177,496.485 254.386,295.005 200.564,295.005 93.355,496.485 	"/>
	<polygon style="fill:#FFBD49;" points="403.13,496.485 295.921,295.005 242.098,295.005 349.308,496.485 	"/>
</g>
<g style="opacity:0.1;">
	<polygon points="214.652,369.68 254.386,295.005 200.564,295.005 160.83,369.68 	"/>
	<polygon points="335.655,369.68 295.921,295.005 242.098,295.005 281.833,369.68 	"/>
</g>
<rect x="30.503" y="25.616" style="fill:#F3F3F3;" width="435.51" height="314.958"/>
<path style="fill:#E5E5E5;" d="M250.632,323.429c0.465-10.488-7.82-19.13-18.184-19.13l-98.04-0.016
	c-10.349,0-18.665-8.657-18.122-19.13c0.512-9.806,9.325-17.175,19.146-17.175h101.205c9.775-0.279,17.672-8.285,17.672-18.137
	c0-10.023-8.161-18.184-18.199-18.184H117.372c-8.394,0-15.282-6.873-15.158-15.267c0-11.326,6.563-16.555,14.336-16.555h99.809
	c9.914,0,18.649-7.339,19.239-17.144c0.465-10.504-7.82-19.13-18.199-19.13H139.76c-8.394,0-15.267-6.889-15.267-15.282l0.109-1.04
	v-0.233c-0.124-8.859,7.106-16.089,15.965-16.089h68.903c9.914,0,18.665-7.339,19.239-17.253c0.465-10.38-7.82-19.13-18.184-19.13
	h-73.34c-8.751,0-15.267-7.354-15.158-16.089c0-0.124,0-0.124,0-0.233c0-0.109,0-0.109,0-0.233
	c-0.109-8.751,6.423-16.105,15.158-16.105h77.017c9.79,0,18.541-7.339,19.13-17.144c0.465-10.504-7.82-19.13-18.184-19.13H30.503
	v314.958h200.999C241.307,340.573,250.058,333.234,250.632,323.429z"/>
<rect x="30.503" y="25.616" style="opacity:0.1;enable-background:new    ;" width="435.51" height="24.685"/>
<g>
	<path style="fill:#777777;" d="M481.233,325.322H15.251C6.827,325.322,0,332.148,0,340.573c0,8.425,6.827,15.251,15.251,15.251
		h465.982c8.425,0,15.251-6.827,15.251-15.251C496.485,332.148,489.658,325.322,481.233,325.322z"/>
	<path style="fill:#777777;" d="M481.233,0H15.251C6.827,0,0,6.827,0,15.251s6.827,15.251,15.251,15.251h465.982
		c8.425,0,15.251-6.827,15.251-15.251S489.658,0,481.233,0z"/>
	<path style="fill:#777777;" d="M137.045,221.556h-14.677v-55.327c-5.368,5.011-11.683,8.72-18.975,11.124v-13.328
		c3.832-1.257,8.006-3.646,12.505-7.152c4.499-3.491,7.571-7.587,9.247-12.241h11.916v76.924H137.045z"/>
	<path style="fill:#777777;" d="M178.952,210.525v-19.906h-20.061v-13.746h20.061v-19.921h13.374v19.921h20.123v13.746h-20.123
		v19.906L178.952,210.525L178.952,210.525z"/>
	<path style="fill:#777777;" d="M259.072,221.556h-14.693v-55.327c-5.368,5.011-11.683,8.72-18.975,11.124v-13.328
		c3.848-1.257,8.006-3.646,12.49-7.152c4.499-3.491,7.571-7.587,9.247-12.241h11.916v76.924H259.072z"/>
	<path style="fill:#777777;" d="M280.917,178.921v-13.483h53.558v13.483H280.917z M280.917,202.116v-13.529h53.558v13.529H280.917z"
		/>
	<path style="fill:#777777;" d="M393.092,207.919v13.638h-51.479c0.559-5.151,2.234-10.054,5.011-14.646
		c2.793-4.624,8.301-10.752,16.508-18.37c6.625-6.175,10.69-10.349,12.179-12.536c2.017-3.041,3.025-6.035,3.025-8.999
		c0-3.274-0.884-5.803-2.638-7.556c-1.769-1.769-4.189-2.638-7.292-2.638c-3.072,0-5.508,0.946-7.323,2.777
		c-1.815,1.846-2.855,4.918-3.134,9.185l-14.631-1.443c0.869-8.083,3.6-13.886,8.208-17.408c4.592-3.506,10.349-5.275,17.237-5.275
		c7.556,0,13.498,2.032,17.811,6.113s6.485,9.154,6.485,15.205c0,3.444-0.621,6.734-1.862,9.852c-1.241,3.119-3.196,6.392-5.88,9.79
		c-1.769,2.281-4.98,5.523-9.619,9.775c-4.639,4.251-7.556,7.075-8.797,8.487c-1.241,1.396-2.234,2.746-2.994,4.08h29.184V207.919z"
		/>
</g>
<g>
</g>
<g>
</g>
<g>
</g>
<g>
</g>
<g>
</g>
<g>
</g>
<g>
</g>
<g>
</g>
<g>
</g>
<g>
</g>
<g>
</g>
<g>
</g>
<g>
</g>
<g>
</g>
<g>
</g>
</svg>
